<svg width="285" height="46" viewBox="0 0 285 46" fill="none" xmlns="http://www.w3.org/2000/svg">
<path d="M15.4014 39.8L14.7514 38.65C16.0847 37.3167 16.9514 35.9833 17.3514 34.65C17.7514 33.3167 17.9514 32.1333 17.9514 31.1C17.9514 29.4667 17.6347 27.9667 17.0014 26.6C16.4014 25.2 15.5847 23.8833 14.5514 22.65C13.5514 21.4167 12.4847 20.25 11.3514 19.15C10.2514 18.05 9.20137 16.9667 8.20137 15.9C7.20137 14.8 6.3847 13.6833 5.75137 12.55C5.11803 11.4167 4.80137 10.2333 4.80137 9C4.80137 7.76667 5.0847 6.71667 5.65137 5.85C6.25137 4.95 7.01803 4.26666 7.95137 3.8C8.91803 3.33333 9.9847 3.1 11.1514 3.1C12.3514 3.1 13.4847 3.38333 14.5514 3.95C15.6514 4.48333 16.618 5.31667 17.4514 6.45L16.5014 7.9C15.7014 6.76667 14.818 5.95 13.8514 5.45C12.918 4.91667 11.9514 4.65 10.9514 4.65C9.71803 4.65 8.66803 5.01667 7.80137 5.75C6.96803 6.48333 6.55137 7.48333 6.55137 8.75C6.55137 9.78333 6.86803 10.8167 7.50137 11.85C8.16803 12.85 9.00137 13.8833 10.0014 14.95C11.0347 15.9833 12.1014 17.0667 13.2014 18.2C14.3347 19.3 15.4014 20.4833 16.4014 21.75C17.4347 23.0167 18.268 24.3833 18.9014 25.85C19.5347 27.2833 19.8514 28.8667 19.8514 30.6C19.8514 32.1667 19.5014 33.7167 18.8014 35.25C18.1347 36.7833 17.0014 38.3 15.4014 39.8ZM9.65137 45.8C8.45137 45.8 7.30137 45.5167 6.20137 44.95C5.1347 44.4167 4.16803 43.5667 3.30137 42.4L4.30137 41C5.10137 42.1 5.9847 42.9 6.95137 43.4C7.91803 43.9333 8.8847 44.2 9.85137 44.2C11.0847 44.2 12.118 43.8333 12.9514 43.1C13.818 42.3667 14.2514 41.3833 14.2514 40.15C14.2514 39.0833 13.918 38.05 13.2514 37.05C12.618 36.05 11.7847 35.0333 10.7514 34C9.75137 32.9333 8.6847 31.85 7.55137 30.75C6.45137 29.6167 5.3847 28.4167 4.35137 27.15C3.35137 25.8833 2.51803 24.5167 1.85137 23.05C1.21803 21.5833 0.901367 20 0.901367 18.3C0.901367 16.7 1.25137 15.15 1.95137 13.65C2.65137 12.1167 3.80137 10.6 5.40137 9.1L6.05137 10.2C4.71803 11.5 3.85137 12.8333 3.45137 14.2C3.05137 15.5667 2.85137 16.7667 2.85137 17.8C2.85137 19.4333 3.15137 20.95 3.75137 22.35C4.3847 23.7167 5.20137 25.0167 6.20137 26.25C7.2347 27.45 8.30137 28.6167 9.40137 29.75C10.5347 30.85 11.6014 31.95 12.6014 33.05C13.6014 34.1167 14.418 35.2 15.0514 36.3C15.6847 37.4333 16.0014 38.6333 16.0014 39.9C16.0014 41.1 15.7014 42.1333 15.1014 43C14.5347 43.9 13.768 44.5833 12.8014 45.05C11.868 45.55 10.818 45.8 9.65137 45.8ZM40.9643 36V3.1H50.7643C53.5976 3.1 56.1476 3.48333 58.4143 4.25C60.6809 5.01666 62.6143 6.11666 64.2143 7.55C65.8476 8.98333 67.0976 10.7 67.9643 12.7C68.8309 14.6667 69.2643 16.8667 69.2643 19.3C69.2643 21.4667 68.8976 23.55 68.1643 25.55C67.4309 27.55 66.3143 29.3333 64.8143 30.9C63.3143 32.4667 61.4143 33.7167 59.1143 34.65C56.8476 35.55 54.1643 36 51.0643 36H40.9643ZM43.1643 34.3H51.2143C53.9143 34.3 56.2476 33.9167 58.2143 33.15C60.2143 32.3833 61.8476 31.3167 63.1143 29.95C64.4143 28.5833 65.3643 27.0167 65.9643 25.25C66.5976 23.4833 66.9143 21.6 66.9143 19.6C66.9143 16.8 66.2809 14.2833 65.0143 12.05C63.7809 9.81667 61.9476 8.05 59.5143 6.75C57.0809 5.45 54.0643 4.8 50.4643 4.8H43.1643V34.3ZM84.6736 36.3C82.7403 36.3 81.0403 35.9 79.5736 35.1C78.107 34.2667 76.957 33.1167 76.1236 31.65C75.2903 30.1833 74.8736 28.45 74.8736 26.45C74.8736 24.1833 75.3236 22.2167 76.2236 20.55C77.157 18.85 78.407 17.5333 79.9736 16.6C81.5736 15.6667 83.3736 15.2 85.3736 15.2C87.707 15.2 89.4403 15.85 90.5736 17.15C91.707 18.4167 92.2736 20.1833 92.2736 22.45C92.2736 22.65 92.2736 22.85 92.2736 23.05C92.2736 23.25 92.257 23.45 92.2236 23.65H90.4236V22.45C90.4236 20.5167 89.9903 19.0833 89.1236 18.15C88.2903 17.2167 87.007 16.75 85.2736 16.75C83.6403 16.75 82.1903 17.15 80.9236 17.95C79.657 18.7167 78.657 19.8 77.9236 21.2C77.2236 22.6 76.8736 24.2667 76.8736 26.2C76.8736 28.7667 77.6236 30.8167 79.1236 32.35C80.657 33.8833 82.6236 34.65 85.0236 34.65C86.1903 34.65 87.307 34.4333 88.3736 34C89.4403 33.5667 90.4736 32.8833 91.4736 31.95L92.3736 33.1C91.507 33.9 90.6403 34.5333 89.7736 35C88.9403 35.4667 88.107 35.8 87.2736 36C86.4403 36.2 85.5736 36.3 84.6736 36.3ZM76.3236 23.65L76.6236 22.2H91.8736V23.65H76.3236ZM99.6311 36V0.6L101.681 0.299998V36H99.6311ZM111.751 36V15.65L113.851 15.3V36H111.751ZM112.801 8.55C112.301 8.55 111.884 8.38333 111.551 8.05C111.218 7.71667 111.051 7.31667 111.051 6.85C111.051 6.35 111.218 5.95 111.551 5.65C111.884 5.31666 112.301 5.15 112.801 5.15C113.301 5.15 113.718 5.31666 114.051 5.65C114.384 5.95 114.551 6.35 114.551 6.85C114.551 7.31667 114.384 7.71667 114.051 8.05C113.718 8.38333 113.301 8.55 112.801 8.55ZM130.149 36V12.9H132.249V36H130.149ZM120.299 14.6V12.9H142.149V14.6H120.299ZM155.816 36.3C153.883 36.3 152.183 35.9 150.716 35.1C149.25 34.2667 148.1 33.1167 147.266 31.65C146.433 30.1833 146.016 28.45 146.016 26.45C146.016 24.1833 146.466 22.2167 147.366 20.55C148.3 18.85 149.55 17.5333 151.116 16.6C152.716 15.6667 154.516 15.2 156.516 15.2C158.85 15.2 160.583 15.85 161.716 17.15C162.85 18.4167 163.416 20.1833 163.416 22.45C163.416 22.65 163.416 22.85 163.416 23.05C163.416 23.25 163.4 23.45 163.366 23.65H161.566V22.45C161.566 20.5167 161.133 19.0833 160.266 18.15C159.433 17.2167 158.15 16.75 156.416 16.75C154.783 16.75 153.333 17.15 152.066 17.95C150.8 18.7167 149.8 19.8 149.066 21.2C148.366 22.6 148.016 24.2667 148.016 26.2C148.016 28.7667 148.766 30.8167 150.266 32.35C151.8 33.8833 153.766 34.65 156.166 34.65C157.333 34.65 158.45 34.4333 159.516 34C160.583 33.5667 161.616 32.8833 162.616 31.95L163.516 33.1C162.65 33.9 161.783 34.5333 160.916 35C160.083 35.4667 159.25 35.8 158.416 36C157.583 36.2 156.716 36.3 155.816 36.3ZM147.466 23.65L147.766 22.2H163.016V23.65H147.466ZM167.424 36L175.824 25.45L168.024 15.5H170.624L177.124 24L183.624 15.5H185.924L178.124 25.3L186.474 36H183.874L176.824 26.7L169.774 36H167.424ZM199.647 36.35C198.481 36.35 197.447 36.1167 196.547 35.65C195.681 35.15 195.014 34.45 194.547 33.55C194.081 32.65 193.847 31.5667 193.847 30.3V16.5L194.447 11.1L195.947 10.9V30C195.947 31.5 196.314 32.6667 197.047 33.5C197.781 34.3333 198.814 34.75 200.147 34.75C200.947 34.75 201.747 34.6 202.547 34.3C203.347 33.9667 204.131 33.4667 204.897 32.8L205.597 33.9C204.664 34.7667 203.681 35.4 202.647 35.8C201.647 36.1667 200.647 36.35 199.647 36.35ZM204.597 17.7H189.397L189.497 16.15L204.697 16L204.597 17.7ZM219.294 36.3C217.327 36.3 215.577 35.85 214.044 34.95C212.511 34.05 211.294 32.8167 210.394 31.25C209.494 29.6833 209.044 27.9 209.044 25.9C209.044 23.8333 209.511 22 210.444 20.4C211.411 18.7667 212.711 17.5 214.344 16.6C215.977 15.6667 217.827 15.2 219.894 15.2C221.861 15.2 223.611 15.65 225.144 16.55C226.677 17.4167 227.877 18.6333 228.744 20.2C229.644 21.7333 230.094 23.5 230.094 25.5C230.094 27.5667 229.627 29.4167 228.694 31.05C227.761 32.6833 226.477 33.9667 224.844 34.9C223.244 35.8333 221.394 36.3 219.294 36.3ZM219.544 34.8C221.244 34.8 222.711 34.4 223.944 33.6C225.211 32.7667 226.177 31.6667 226.844 30.3C227.544 28.9333 227.894 27.4 227.894 25.7C227.894 23.9 227.527 22.3333 226.794 21C226.094 19.6333 225.127 18.5833 223.894 17.85C222.661 17.0833 221.244 16.7 219.644 16.7C218.011 16.7 216.544 17.1 215.244 17.9C213.977 18.6667 212.994 19.7333 212.294 21.1C211.594 22.4333 211.244 23.9667 211.244 25.7C211.244 27.5 211.611 29.0833 212.344 30.45C213.077 31.8167 214.061 32.8833 215.294 33.65C216.561 34.4167 217.977 34.8 219.544 34.8ZM241.281 36.3C240.348 36.3 239.448 36.2 238.581 36C237.714 35.8333 236.931 35.5833 236.231 35.25C235.531 34.8833 234.931 34.5167 234.431 34.15L235.081 32.4C235.814 33.1333 236.764 33.7333 237.931 34.2C239.098 34.6333 240.264 34.85 241.431 34.85C242.964 34.85 244.214 34.45 245.181 33.65C246.148 32.8167 246.631 31.8333 246.631 30.7C246.631 29.7667 246.364 29.0167 245.831 28.45C245.298 27.8833 244.614 27.4167 243.781 27.05C242.948 26.6833 242.064 26.3333 241.131 26C240.198 25.6667 239.298 25.2833 238.431 24.85C237.598 24.4167 236.914 23.85 236.381 23.15C235.848 22.45 235.581 21.5667 235.581 20.5C235.581 19.3333 235.881 18.3667 236.481 17.6C237.081 16.8 237.881 16.2 238.881 15.8C239.881 15.3667 240.964 15.15 242.131 15.15C243.131 15.15 244.114 15.2833 245.081 15.55C246.081 15.8167 246.931 16.2 247.631 16.7L246.981 18.4C246.381 17.8 245.614 17.35 244.681 17.05C243.781 16.75 242.914 16.6 242.081 16.6C240.714 16.6 239.598 16.9333 238.731 17.6C237.898 18.2667 237.481 19.1167 237.481 20.15C237.481 21.0167 237.748 21.7333 238.281 22.3C238.848 22.8333 239.548 23.2833 240.381 23.65C241.214 23.9833 242.098 24.3333 243.031 24.7C243.998 25.0333 244.898 25.4167 245.731 25.85C246.564 26.2833 247.248 26.8667 247.781 27.6C248.314 28.3 248.581 29.2167 248.581 30.35C248.581 31.1833 248.398 31.9667 248.031 32.7C247.698 33.4333 247.214 34.0667 246.581 34.6C245.948 35.1333 245.181 35.55 244.281 35.85C243.381 36.15 242.381 36.3 241.281 36.3ZM280.44 39.8L279.79 38.65C281.124 37.3167 281.99 35.9833 282.39 34.65C282.79 33.3167 282.99 32.1333 282.99 31.1C282.99 29.4667 282.674 27.9667 282.04 26.6C281.44 25.2 280.624 23.8833 279.59 22.65C278.59 21.4167 277.524 20.25 276.39 19.15C275.29 18.05 274.24 16.9667 273.24 15.9C272.24 14.8 271.424 13.6833 270.79 12.55C270.157 11.4167 269.84 10.2333 269.84 9C269.84 7.76667 270.124 6.71667 270.69 5.85C271.29 4.95 272.057 4.26666 272.99 3.8C273.957 3.33333 275.024 3.1 276.19 3.1C277.39 3.1 278.524 3.38333 279.59 3.95C280.69 4.48333 281.657 5.31667 282.49 6.45L281.54 7.9C280.74 6.76667 279.857 5.95 278.89 5.45C277.957 4.91667 276.99 4.65 275.99 4.65C274.757 4.65 273.707 5.01667 272.84 5.75C272.007 6.48333 271.59 7.48333 271.59 8.75C271.59 9.78333 271.907 10.8167 272.54 11.85C273.207 12.85 274.04 13.8833 275.04 14.95C276.074 15.9833 277.14 17.0667 278.24 18.2C279.374 19.3 280.44 20.4833 281.44 21.75C282.474 23.0167 283.307 24.3833 283.94 25.85C284.574 27.2833 284.89 28.8667 284.89 30.6C284.89 32.1667 284.54 33.7167 283.84 35.25C283.174 36.7833 282.04 38.3 280.44 39.8ZM274.69 45.8C273.49 45.8 272.34 45.5167 271.24 44.95C270.174 44.4167 269.207 43.5667 268.34 42.4L269.34 41C270.14 42.1 271.024 42.9 271.99 43.4C272.957 43.9333 273.924 44.2 274.89 44.2C276.124 44.2 277.157 43.8333 277.99 43.1C278.857 42.3667 279.29 41.3833 279.29 40.15C279.29 39.0833 278.957 38.05 278.29 37.05C277.657 36.05 276.824 35.0333 275.79 34C274.79 32.9333 273.724 31.85 272.59 30.75C271.49 29.6167 270.424 28.4167 269.39 27.15C268.39 25.8833 267.557 24.5167 266.89 23.05C266.257 21.5833 265.94 20 265.94 18.3C265.94 16.7 266.29 15.15 266.99 13.65C267.69 12.1167 268.84 10.6 270.44 9.1L271.09 10.2C269.757 11.5 268.89 12.8333 268.49 14.2C268.09 15.5667 267.89 16.7667 267.89 17.8C267.89 19.4333 268.19 20.95 268.79 22.35C269.424 23.7167 270.24 25.0167 271.24 26.25C272.274 27.45 273.34 28.6167 274.44 29.75C275.574 30.85 276.64 31.95 277.64 33.05C278.64 34.1167 279.457 35.2 280.09 36.3C280.724 37.4333 281.04 38.6333 281.04 39.9C281.04 41.1 280.74 42.1333 280.14 43C279.574 43.9 278.807 44.5833 277.84 45.05C276.907 45.55 275.857 45.8 274.69 45.8Z" fill="#FAF0E6"/>
</svg>
